<?xml version="1.0" encoding="UTF-8" standalone="no"?>
<!DOCTYPE svg PUBLIC "-//W3C//DTD SVG 1.1//EN" "http://www.w3.org/Graphics/SVG/1.1/DTD/svg11.dtd">
<!-- Generated by Microsoft Visio, SVG Export josim_mutual.svg Page-1 -->
<svg xmlns="http://www.w3.org/2000/svg" xmlns:xlink="http://www.w3.org/1999/xlink" xmlns:ev="http://www.w3.org/2001/xml-events"
		xmlns:v="http://schemas.microsoft.com/visio/2003/SVGExtensions/" width="1.38233in" height="0.969135in"
		viewBox="0 0 99.5276 69.7777" xml:space="preserve" color-interpolation-filters="sRGB" class="st13">
	<v:documentProperties v:langID="1033" v:metric="true" v:viewMarkup="false">
		<v:userDefs>
			<v:ud v:nameU="msvNoAutoConnect" v:val="VT0(0):26"/>
		</v:userDefs>
	</v:documentProperties>

	<style type="text/css">
	<![CDATA[
		.st1 {marker-end:url(#mrkr2-9);marker-start:url(#mrkr11-7);stroke:#a5a5a5;stroke-linecap:round;stroke-linejoin:round;stroke-width:1.25}
		.st2 {fill:#a5a5a5;fill-opacity:1;stroke:#a5a5a5;stroke-opacity:1;stroke-width:0.46468401486989}
		.st3 {fill:#a5a5a5;fill-opacity:1;stroke:#a5a5a5;stroke-opacity:1;stroke-width:0.27839643652561}
		.st4 {fill:#a5a5a5;font-family:Consolas;font-size:0.666664em}
		.st5 {baseline-shift:-32.4939%;font-size:0.649878em}
		.st6 {fill:none;stroke:none;stroke-linecap:round;stroke-linejoin:round;stroke-width:2}
		.st7 {fill:#a5a5a5;font-family:Franklin Gothic Book;font-size:0.666664em}
		.st8 {stroke:#a5a5a5;stroke-linecap:butt;stroke-width:1.47402}
		.st9 {fill:#a5a5a5;font-family:Franklin Gothic Book;font-size:0.833336em}
		.st10 {baseline-shift:-32.4947%;font-size:0.649894em}
		.st11 {marker-start:url(#mrkr2-93);stroke:#a5a5a5;stroke-linecap:round;stroke-linejoin:round;stroke-width:1.25}
		.st12 {fill:#a5a5a5;fill-opacity:1;stroke:#a5a5a5;stroke-opacity:1;stroke-width:0.3315649867374}
		.st13 {fill:none;fill-rule:evenodd;font-size:12px;overflow:visible;stroke-linecap:square;stroke-miterlimit:3}
	]]>
	</style>

	<defs id="Markers">
		<g id="lend11">
			<path d="M 0.75 -0.75 L 0.75 0.75 L -0.75 0.75 L -0.75 -0.75 L 0.75 -0.75 " style="stroke:none"/>
		</g>
		<marker id="mrkr11-7" class="st2" v:arrowType="11" v:arrowSize="0" v:setback="1.326" refX="1.326" orient="auto"
				markerUnits="strokeWidth" overflow="visible">
			<use xlink:href="#lend11" transform="scale(2.152) "/>
		</marker>
		<g id="lend2">
			<path d="M 1 1 L 0 0 L 1 -1 L 1 1 " style="stroke:none"/>
		</g>
		<marker id="mrkr2-9" class="st3" v:arrowType="2" v:arrowSize="3" v:setback="3.592" refX="-3.592" orient="auto"
				markerUnits="strokeWidth" overflow="visible">
			<use xlink:href="#lend2" transform="scale(-3.592,-3.592) "/>
		</marker>
		<marker id="mrkr2-93" class="st12" v:arrowType="2" v:arrowSize="2" v:setback="2.728" refX="2.728" orient="auto"
				markerUnits="strokeWidth" overflow="visible">
			<use xlink:href="#lend2" transform="scale(3.016) "/>
		</marker>
	</defs>
	<g v:mID="0" v:index="1" v:groupContext="foregroundPage">
		<v:userDefs>
			<v:ud v:nameU="AccumulatorCount" v:prompt="" v:val="VT0(2):26"/>
			<v:ud v:nameU="msvThemeOrder" v:val="VT0(0):26"/>
			<v:ud v:nameU="DelayEleCount" v:prompt="" v:val="VT0(2):26"/>
			<v:ud v:nameU="InductorCount" v:prompt="" v:val="VT0(5):26"/>
		</v:userDefs>
		<title>Page-1</title>
		<v:pageProperties v:drawingScale="0.0393701" v:pageScale="0.0393701" v:drawingUnits="24" v:shadowOffsetX="8.50394"
				v:shadowOffsetY="-8.50394"/>
		<v:layer v:name="Electrical" v:index="0"/>
		<v:layer v:name="Connector" v:index="1"/>
		<g id="shape3-1" v:mID="3" v:groupContext="shape" v:layerMember="1" transform="translate(8.22047,-49.8746)">
			<title>Dynamic connector</title>
			<desc>1</desc>
			<v:textBlock v:margins="rect(4,4,4,4)" v:tabSpace="42.5197"/>
			<v:textRect cx="8.7874" cy="72.8806" width="40" height="17.6036"/>
			<path d="M1.66 76.85 L2.02 76.85 L18.58 76.87" class="st1"/>
			<text x="6.59" y="75.28" class="st4" v:langID="1033"><v:paragraph v:horizAlign="1"/><v:tabList/>1</text>		</g>
		<g id="shape5-11" v:mID="5" v:groupContext="shape" v:layerMember="1" transform="translate(68.0932,-49.7328)">
			<title>Dynamic connector.5</title>
			<desc>3</desc>
			<v:textBlock v:margins="rect(4,4,4,4)" v:tabSpace="42.5197"/>
			<v:textRect cx="11.2769" cy="72.172" width="40" height="17.6036"/>
			<path d="M1.66 76.76 L2.02 76.76 L17.43 76.94" class="st1"/>
			<text x="9.08" y="74.57" class="st4" v:langID="1033"><v:paragraph v:horizAlign="1"/><v:tabList/>3</text>		</g>
		<g id="shape1004-19" v:mID="1004" v:groupContext="shape" v:layerMember="1" transform="translate(8.22047,-13.009)">
			<title>Dynamic connector.1004</title>
			<desc>2</desc>
			<v:textBlock v:margins="rect(4,4,4,4)" v:tabSpace="42.5197"/>
			<v:textRect cx="8.7874" cy="72.8654" width="40" height="17.6036"/>
			<path d="M1.66 76.86 L2.02 76.86 L18.58 76.86" class="st1"/>
			<text x="6.59" y="75.27" class="st4" v:langID="1033"><v:paragraph v:horizAlign="1"/><v:tabList/>2</text>		</g>
		<g id="shape1005-27" v:mID="1005" v:groupContext="shape" v:layerMember="1" transform="translate(68.0932,-12.8824)">
			<title>Dynamic connector.1005</title>
			<desc>4</desc>
			<v:textBlock v:margins="rect(4,4,4,4)" v:tabSpace="42.5197"/>
			<v:textRect cx="11.2769" cy="72.7389" width="40" height="17.6036"/>
			<path d="M1.66 76.76 L2.02 76.76 L18.13 76.94" class="st1"/>
			<text x="9.08" y="75.14" class="st4" v:langID="1033"><v:paragraph v:horizAlign="1"/><v:tabList/>4</text>		</g>
		<g id="shape1006-35" v:mID="1006" v:groupContext="shape" v:layerMember="1" transform="translate(8.22047,-68.0163)">
			<title>Dynamic connector.1006</title>
			<desc>IL1</desc>
			<v:textBlock v:margins="rect(4,4,4,4)" v:tabSpace="42.5197"/>
			<v:textRect cx="8.7874" cy="72.5972" width="40" height="17.6036"/>
			<path d="M1.66 76.85 L2.02 76.85 L5.3 76.85 a0.0152049 0.0152049 0 0 1 0.0152049 0.0152049 L5.31 76.86 a0.0152049 0.0152049
						 -180 0 0 0.0152049 0.0152049 L18.58 76.88" class="st1"/>
			<text x="2.96" y="75" class="st4" v:langID="1033"><v:paragraph v:horizAlign="1"/><v:tabList/>IL<tspan dy="-0.284em"
						class="st5" v:baseFontSize="8">1</tspan></text>		</g>
		<g id="shape1007-44" v:mID="1007" v:groupContext="shape" v:layerMember="1" transform="translate(68.0315,-53.8583)">
			<title>Dynamic connector.1007</title>
			<desc>IL2</desc>
			<v:textBlock v:margins="rect(4,4,4,4)" v:tabSpace="42.5197"/>
			<v:textRect cx="11.3386" cy="58.4392" width="40" height="17.6036"/>
			<path d="M1.66 62.69 L2.02 62.69 L18.19 62.69" class="st1"/>
			<text x="5.51" y="60.84" class="st4" v:langID="1033"><v:paragraph v:horizAlign="1"/><v:tabList/>IL<tspan dy="-0.284em"
						class="st5" v:baseFontSize="8">2</tspan></text>		</g>
		<g id="shape1008-53" v:mID="1008" v:groupContext="shape" transform="translate(44.5721,-50.3622)">
			<title>Sheet.1008</title>
			<desc>k</desc>
			<v:textBlock v:margins="rect(2,2,2,2)" v:tabSpace="42.5197"/>
			<v:textRect cx="3.61691" cy="63.7777" width="7.24" height="12"/>
			<rect x="0" y="57.7777" width="7.23382" height="12" rx="3.61691" ry="3.61691" class="st6"/>
			<text x="2" y="66.18" class="st7" v:langID="1033"><v:paragraph v:horizAlign="1"/><v:tabList/>k</text>		</g>
		<g id="group1009-56" transform="translate(82.6469,27.005) rotate(90)" v:mID="1009" v:groupContext="group" v:layerMember="0">
			<v:custProps>
				<v:cp v:nameU="Core" v:lbl="Core" v:type="1" v:format="Air;Magnetic;Magnetic with Gap" v:langID="1033"
						v:val="VT4(Air)"/>
				<v:cp v:nameU="Adjustability" v:lbl="Adjustability" v:type="1" v:format="Fixed;Adjustable;Continuously Adjustable"
						v:langID="1033" v:val="VT4(Fixed)"/>
				<v:cp v:nameU="Taps" v:lbl="Taps" v:type="1" v:format="0;1;2;3" v:langID="1033" v:val="VT4(0)"/>
				<v:cp v:nameU="Label" v:lbl="Label" v:prompt="" v:type="0" v:format="@" v:sortKey="" v:invis="false" v:ask="false"
						v:langID="1033" v:cal="0" v:val="VT4()"/>
				<v:cp v:nameU="Label" v:lbl="" v:prompt="" v:type="0" v:format="" v:sortKey="" v:invis="false" v:ask="false"
						v:langID="0" v:cal="0" v:val="VT4(L1)"/>
			</v:custProps>
			<v:userDefs>
				<v:ud v:nameU="Core" v:val="VT0(0):26"/>
				<v:ud v:nameU="Adjustability" v:val="VT0(0):26"/>
				<v:ud v:nameU="visDescription" v:val="VT4(Represents an inductor.)"/>
				<v:ud v:nameU="visVersion" v:val="VT0(15):26"/>
				<v:ud v:nameU="Label" v:prompt="" v:val="VT4()"/>
				<v:ud v:nameU="SolSH" v:prompt="" v:val="VT4({2EE3C7D2-E26E-4B72-9E9C-5170DDBF261A})"/>
				<v:ud v:nameU="Label" v:prompt="" v:val="VT4(L3)"/>
			</v:userDefs>
			<title>Inductor.1009</title>
			<desc>L1</desc>
			<g id="shape1010-57" v:mID="1010" v:groupContext="shape" v:layerMember="0" transform="translate(29.3478,-33.0217)">
				<title>Sheet.1010</title>
			</g>
			<g id="shape1011-59" v:mID="1011" v:groupContext="shape" v:layerMember="0" transform="translate(0,-8.63681E-06)">
				<title>Sheet.1011</title>
				<path d="" class="st8"/>
				<path d="M18.69 44.42 C22.54 48.67 22.61 56.6 18.69 56.59 C14.84 56.59 14.68 50.87 16.86 47.13 C20.99 38.91 28.26
							 41.06 30.7 47.4 C32.33 52.04 32.09 56.59 28.48 56.5 C24.45 56.4 24.71 46.98 28.48 43.95" class="st8"/>
				<path d="" class="st8"/>
				<path d="M36.85 51.35 C36.85 69.78 36.85 48.5 36.85 47.58 C36.86 42.65 33.08 39.49 28.48 43.95" class="st8"/>
				<path d="" class="st8"/>
				<path d="M8.58 44.45 C12.4 48.65 12.83 56.59 8.58 56.61 C4.33 56.63 5.61 49.18 7.04 46.72 C9.96 41.72 14.83 39.97
							 18.69 44.42" class="st8"/>
				<path d="" class="st8"/>
				<path d="M0 51.35 C0 69.78 0 49.85 0 48.34 C-0 41.59 4.73 39.95 8.58 44.45" class="st8"/>
			</g>
			<g id="shape1009-69" v:mID="1009" v:groupContext="groupContent" v:layerMember="0">
				<v:textBlock v:margins="rect(1,1,1,1)" v:tabSpace="34.0157" v:verticalAlign="0"/>
				<v:textRect cx="18.6783" cy="65.639" width="13.22" height="14.0036" transform="rotate(-90)"/>
				<text x="-69.99" y="21.68" transform="rotate(-90)" class="st9" v:langID="1033"><v:paragraph v:horizAlign="1"/><v:tabList/>L<tspan
							dy="-0.397em" class="st10" v:baseFontSize="10">1</tspan></text>			</g>
		</g>
		<g id="group1013-72" transform="translate(16.7406,63.8554) rotate(-90)" v:mID="1013" v:groupContext="group"
				v:layerMember="0">
			<v:custProps>
				<v:cp v:nameU="Core" v:lbl="Core" v:type="1" v:format="Air;Magnetic;Magnetic with Gap" v:langID="1033"
						v:val="VT4(Air)"/>
				<v:cp v:nameU="Adjustability" v:lbl="Adjustability" v:type="1" v:format="Fixed;Adjustable;Continuously Adjustable"
						v:langID="1033" v:val="VT4(Fixed)"/>
				<v:cp v:nameU="Taps" v:lbl="Taps" v:type="1" v:format="0;1;2;3" v:langID="1033" v:val="VT4(0)"/>
				<v:cp v:nameU="Label" v:lbl="Label" v:prompt="" v:type="0" v:format="@" v:sortKey="" v:invis="false" v:ask="false"
						v:langID="1033" v:cal="0" v:val="VT4()"/>
				<v:cp v:nameU="Label" v:lbl="" v:prompt="" v:type="0" v:format="" v:sortKey="" v:invis="false" v:ask="false"
						v:langID="0" v:cal="0" v:val="VT4(L2)"/>
			</v:custProps>
			<v:userDefs>
				<v:ud v:nameU="Core" v:val="VT0(0):26"/>
				<v:ud v:nameU="Adjustability" v:val="VT0(0):26"/>
				<v:ud v:nameU="visDescription" v:val="VT4(Represents an inductor.)"/>
				<v:ud v:nameU="visVersion" v:val="VT0(15):26"/>
				<v:ud v:nameU="Label" v:prompt="" v:val="VT4()"/>
				<v:ud v:nameU="SolSH" v:prompt="" v:val="VT4({2EE3C7D2-E26E-4B72-9E9C-5170DDBF261A})"/>
				<v:ud v:nameU="Label" v:prompt="" v:val="VT4(L4)"/>
			</v:userDefs>
			<title>Inductor.1013</title>
			<desc>L2</desc>
			<g id="shape1014-73" v:mID="1014" v:groupContext="shape" v:layerMember="0" transform="translate(29.3478,-33.0217)">
				<title>Sheet.1014</title>
			</g>
			<g id="shape1015-75" v:mID="1015" v:groupContext="shape" v:layerMember="0" transform="translate(0,-8.63681E-06)">
				<title>Sheet.1015</title>
				<path d="" class="st8"/>
				<path d="M18.69 44.42 C22.54 48.67 22.61 56.6 18.69 56.59 C14.84 56.59 14.68 50.87 16.86 47.13 C20.99 38.91 28.26
							 41.06 30.7 47.4 C32.33 52.04 32.09 56.59 28.48 56.5 C24.45 56.4 24.71 46.98 28.48 43.95" class="st8"/>
				<path d="" class="st8"/>
				<path d="M36.85 51.35 C36.85 69.78 36.85 48.5 36.85 47.58 C36.86 42.65 33.08 39.49 28.48 43.95" class="st8"/>
				<path d="" class="st8"/>
				<path d="M8.58 44.45 C12.4 48.65 12.83 56.59 8.58 56.61 C4.33 56.63 5.61 49.18 7.04 46.72 C9.96 41.72 14.83 39.97
							 18.69 44.42" class="st8"/>
				<path d="" class="st8"/>
				<path d="M0 51.35 C0 69.78 0 49.85 0 48.34 C-0 41.59 4.73 39.95 8.58 44.45" class="st8"/>
			</g>
			<g id="shape1013-85" v:mID="1013" v:groupContext="groupContent" v:layerMember="0">
				<v:textBlock v:margins="rect(1,1,1,1)" v:tabSpace="34.0157" v:verticalAlign="0"/>
				<v:textRect cx="18.6783" cy="65.639" width="13.22" height="14.0036" transform="rotate(90)"/>
				<text x="61.28" y="-15.68" transform="rotate(90)" class="st9" v:langID="1033"><v:paragraph v:horizAlign="1"/><v:tabList/>L<tspan
							dy="-0.397em" class="st10" v:baseFontSize="10">2</tspan></text>			</g>
		</g>
		<g id="shape1016-88" v:mID="1016" v:groupContext="shape" transform="translate(5.06558,-36.1606) rotate(-29.7449)">
			<title>Sheet.1016</title>
			<path d="M2.92 68.02 L3.23 67.83 A9.92126 5.66929 29.74 0 1 11.43 69.78" class="st11"/>
		</g>
		<g id="shape1017-94" v:mID="1017" v:groupContext="shape" transform="translate(25.9197,83.2372) rotate(-150.255)">
			<title>Sheet.1017</title>
			<path d="M2.92 69.5 L3.23 69.68 A9.92126 5.66929 -29.74 0 0 11.43 67.74" class="st11"/>
		</g>
	</g>
</svg>
